<?xml version="1.0" encoding="UTF-8" standalone="no"?>
<svg
   xmlns:dc="http://purl.org/dc/elements/1.1/"
   xmlns:cc="http://creativecommons.org/ns#"
   xmlns:rdf="http://www.w3.org/1999/02/22-rdf-syntax-ns#"
   xmlns:svg="http://www.w3.org/2000/svg"
   xmlns="http://www.w3.org/2000/svg"
   version="1.1"
   id="svg2"
   xml:space="preserve"
   width="1280"
   height="720"
   viewBox="0 0 1280 720"><metadata
     id="metadata8"><rdf:RDF><cc:Work
         rdf:about=""><dc:format>image/svg+xml</dc:format><dc:type
           rdf:resource="http://purl.org/dc/dcmitype/StillImage" /></cc:Work></rdf:RDF></metadata><defs
     id="defs6"><clipPath
       clipPathUnits="userSpaceOnUse"
       id="clipPath20"><path
         d="M 0,1.206994e-5 H 959.76 V 540.00001 H 0 Z"
         id="path18" /></clipPath><clipPath
       clipPathUnits="userSpaceOnUse"
       id="clipPath34"><path
         d="m 437.0867,35.38691 h 70.97351 v 295.1786 H 437.0867 Z"
         id="path32" /></clipPath><clipPath
       clipPathUnits="userSpaceOnUse"
       id="clipPath64"><path
         d="m 437.0867,35.38691 h 70.97351 v 295.1786 H 437.0867 Z"
         id="path62" /></clipPath><clipPath
       clipPathUnits="userSpaceOnUse"
       id="clipPath94"><path
         d="m 345.0777,23.70797 h 172.5942 v 492.5842 H 345.0777 Z"
         id="path92" /></clipPath><linearGradient
       x1="306.60001"
       y1="293.04001"
       x2="306.60001"
       y2="361.92001"
       gradientUnits="userSpaceOnUse"
       gradientTransform="matrix(1.425171,0,0,-1.425158,157.9814,743.4052)"
       id="linearGradient188"><stop
         style="stop-opacity:1;stop-color:#005393"
         offset="0"
         id="stop184" /><stop
         style="stop-opacity:1;stop-color:#feffff"
         offset="1"
         id="stop186" /></linearGradient><clipPath
       clipPathUnits="userSpaceOnUse"
       id="clipPath198"><path
         d="m 345.0777,23.70797 h 172.5942 v 492.5842 H 345.0777 Z"
         id="path196" /></clipPath><clipPath
       clipPathUnits="userSpaceOnUse"
       id="clipPath232"><path
         d="M 0,0 V 0 0 Z"
         id="path230" /></clipPath><clipPath
       clipPathUnits="userSpaceOnUse"
       id="clipPath262"><path
         d="M 0,0 V 0 0 Z"
         id="path260" /></clipPath><clipPath
       clipPathUnits="userSpaceOnUse"
       id="clipPath292"><path
         d="m 568.018,211.4594 h 23.1429 v 89.99999 H 568.018 Z"
         id="path290" /></clipPath><linearGradient
       x1="306.60001"
       y1="293.04001"
       x2="306.60001"
       y2="361.92001"
       gradientUnits="userSpaceOnUse"
       gradientTransform="matrix(2.137738,0,0,-1.425157,-56.07991,721.9213)"
       id="linearGradient378"><stop
         style="stop-opacity:1;stop-color:#005393"
         offset="0"
         id="stop374" /><stop
         style="stop-opacity:1;stop-color:#feffff"
         offset="1"
         id="stop376" /></linearGradient></defs><g
     id="g10"
     transform="matrix(1.3333333,0,0,-1.3333333,0,720)"><g
       id="g12" /><g
       id="g14"><g
         id="g16"
         clip-path="url(#clipPath20)"><path
           d="M 0,540 H 959.76 V 1.206994e-5 H 0 Z"
           style="fill:#ffffff;fill-opacity:1;fill-rule:nonzero;stroke:none"
           id="path22" /></g></g><g
       id="g24"><path
         d="M 0,540 H 960 V 1.40816e-5 H 0 Z"
         style="fill:#ffffff;fill-opacity:1;fill-rule:nonzero;stroke:none"
         id="path26" /></g><g
       id="g28"><g
         id="g30"
         clip-path="url(#clipPath34)"><path
           d="m 437.0867,303.7312 h 33.77655 v 26.83443 H 437.0867 Z"
           style="fill:#c8d5e4;fill-opacity:1;fill-rule:nonzero;stroke:none"
           id="path36" /><path
           d="m 437.0867,276.8968 h 33.77655 v 26.83443 H 437.0867 Z"
           style="fill:#acc1d6;fill-opacity:1;fill-rule:nonzero;stroke:none"
           id="path38" /><path
           d="m 437.0867,250.0623 h 33.77655 v 26.83443 H 437.0867 Z"
           style="fill:#c0d0e0;fill-opacity:1;fill-rule:nonzero;stroke:none"
           id="path40" /><path
           d="m 437.0867,223.2279 h 33.77655 v 26.83443 H 437.0867 Z"
           style="fill:#a0b7d0;fill-opacity:1;fill-rule:nonzero;stroke:none"
           id="path42" /><path
           d="m 437.0867,196.3935 h 33.77655 v 26.83443 H 437.0867 Z"
           style="fill:#b9cadc;fill-opacity:1;fill-rule:nonzero;stroke:none"
           id="path44" /><path
           d="m 437.0867,169.559 h 33.77655 v 26.83443 H 437.0867 Z"
           style="fill:#feffff;fill-opacity:1;fill-rule:nonzero;stroke:none"
           id="path46" /><path
           d="m 437.0867,142.7246 h 33.77655 v 26.83443 H 437.0867 Z"
           style="fill:#005393;fill-opacity:1;fill-rule:nonzero;stroke:none"
           id="path48" /><path
           d="m 437.0867,115.8902 h 33.77655 v 26.83443 H 437.0867 Z"
           style="fill:#c4d2e2;fill-opacity:1;fill-rule:nonzero;stroke:none"
           id="path50" /><path
           d="m 437.0867,89.05576 h 33.77655 v 26.83443 H 437.0867 Z"
           style="fill:#bdcedf;fill-opacity:1;fill-rule:nonzero;stroke:none"
           id="path52" /><path
           d="m 437.0867,62.22133 h 33.77655 V 89.05576 H 437.0867 Z"
           style="fill:#b4c7db;fill-opacity:1;fill-rule:nonzero;stroke:none"
           id="path54" /><path
           d="m 437.0867,35.38691 h 33.77655 V 62.22134 H 437.0867 Z"
           style="fill:#bfcfe0;fill-opacity:1;fill-rule:nonzero;stroke:none"
           id="path56" /></g></g><g
       id="g58"><g
         id="g60"
         clip-path="url(#clipPath64)"><path
           d="m 474.1982,303.7312 h 33.77655 v 26.83443 H 474.1982 Z"
           style="fill:#9cb5cf;fill-opacity:1;fill-rule:nonzero;stroke:none"
           id="path66" /><path
           d="m 474.1982,276.8968 h 33.77655 v 26.83443 H 474.1982 Z"
           style="fill:#bccdde;fill-opacity:1;fill-rule:nonzero;stroke:none"
           id="path68" /><path
           d="m 474.1982,250.0623 h 33.77655 v 26.83443 H 474.1982 Z"
           style="fill:#c9d6e4;fill-opacity:1;fill-rule:nonzero;stroke:none"
           id="path70" /><path
           d="m 474.1982,223.2279 h 33.77655 v 26.83443 H 474.1982 Z"
           style="fill:#9bb5ce;fill-opacity:1;fill-rule:nonzero;stroke:none"
           id="path72" /><path
           d="m 474.1982,196.3935 h 33.77655 v 26.83443 H 474.1982 Z"
           style="fill:#c1d0e0;fill-opacity:1;fill-rule:nonzero;stroke:none"
           id="path74" /><path
           d="m 474.1982,169.559 h 33.77655 v 26.83443 H 474.1982 Z"
           style="fill:#d9e2ec;fill-opacity:1;fill-rule:nonzero;stroke:none"
           id="path76" /><path
           d="m 474.1982,142.7246 h 33.77655 v 26.83443 H 474.1982 Z"
           style="fill:#b6c8db;fill-opacity:1;fill-rule:nonzero;stroke:none"
           id="path78" /><path
           d="m 474.1982,115.8902 h 33.77655 v 26.83443 H 474.1982 Z"
           style="fill:#b4c7da;fill-opacity:1;fill-rule:nonzero;stroke:none"
           id="path80" /><path
           d="m 474.1982,89.05576 h 33.77655 v 26.83443 H 474.1982 Z"
           style="fill:#b7c9db;fill-opacity:1;fill-rule:nonzero;stroke:none"
           id="path82" /><path
           d="m 474.1982,62.22133 h 33.77655 V 89.05576 H 474.1982 Z"
           style="fill:#bccdde;fill-opacity:1;fill-rule:nonzero;stroke:none"
           id="path84" /><path
           d="m 474.1982,35.38691 h 33.77655 V 62.22134 H 474.1982 Z"
           style="fill:#9fb7d0;fill-opacity:1;fill-rule:nonzero;stroke:none"
           id="path86" /></g></g><g
       id="g88"><g
         id="g90"
         clip-path="url(#clipPath94)"><g
           id="g96"
           transform="matrix(0,1.425158,1.425171,0,445.1676,340.3137)"><text
             transform="translate(0,10)"
             style="font-variant:normal;font-weight:normal;font-size:11px;font-family:Arial;-inkscape-font-specification:ArialMT;writing-mode:lr-tb;fill:#000000;fill-opacity:1;fill-rule:nonzero;stroke:none"
             id="text100"><tspan
               x="0 6.1181998 9.7812004 12.2254 21.388399 27.506599 31.1696 33.6138 39.731998 45.231998 51.350201 56.850201 62.350201 68.468399 77.631401 83.749603 86.805397 92.923599 98.423599 104.5418 112.486"
               y="0"
               id="tspan98">primarios_vs_metas_wt</tspan></text></g><g
           id="g102"
           transform="matrix(0,1.425158,1.425171,0,482.279,340.3137)"><text
             transform="translate(0,10)"
             style="font-variant:normal;font-weight:normal;font-size:11px;font-family:Arial;-inkscape-font-specification:ArialMT;writing-mode:lr-tb;fill:#000000;fill-opacity:1;fill-rule:nonzero;stroke:none"
             id="text106"><tspan
               x="0 6.1181998 9.7812004 12.2254 21.388399 27.506599 31.1696 33.6138 39.731998 45.231998 51.350201 56.850201 62.350201 68.468399 77.631401 83.749603 86.805397 92.923599 98.423599 104.5418 113.7048 119.823"
               y="0"
               id="tspan104">primarios_vs_metas_mut</tspan></text></g><g
           id="g108"
           transform="matrix(1.425171,0,0,-1.425158,157.9814,743.4052)"><text
             transform="translate(157.3285,302.9146)"
             style="font-variant:normal;font-weight:normal;font-size:11px;font-family:Arial;-inkscape-font-specification:ArialMT;writing-mode:lr-tb;fill:#000000;fill-opacity:1;fill-rule:nonzero;stroke:none"
             id="text112"><tspan
               x="0 7.3369999 15.2812 18.337 25.674"
               y="0"
               id="tspan110">PDIA3</tspan></text></g><g
           id="g114"
           transform="matrix(1.425171,0,0,-1.425158,157.9814,743.4052)"><text
             transform="translate(156.7216,321.7437)"
             style="font-variant:normal;font-weight:normal;font-size:11px;font-family:Arial;-inkscape-font-specification:ArialMT;writing-mode:lr-tb;fill:#000000;fill-opacity:1;fill-rule:nonzero;stroke:none"
             id="text118"><tspan
               x="0 7.9442 14.0624 21.399401 25.062401"
               y="0"
               id="tspan116">HLA-A</tspan></text></g><g
           id="g120"
           transform="matrix(1.425171,0,0,-1.425158,157.9814,743.4052)"><text
             transform="translate(156.7216,340.5728)"
             style="font-variant:normal;font-weight:normal;font-size:11px;font-family:Arial;-inkscape-font-specification:ArialMT;writing-mode:lr-tb;fill:#000000;fill-opacity:1;fill-rule:nonzero;stroke:none"
             id="text124"><tspan
               x="0 7.9442 14.0624 21.399401 25.062401"
               y="0"
               id="tspan122">HLA-B</tspan></text></g><g
           id="g126"
           transform="matrix(1.425171,0,0,-1.425158,157.9814,743.4052)"><text
             transform="translate(156.1146,359.4019)"
             style="font-variant:normal;font-weight:normal;font-size:11px;font-family:Arial;-inkscape-font-specification:ArialMT;writing-mode:lr-tb;fill:#000000;fill-opacity:1;fill-rule:nonzero;stroke:none"
             id="text130"><tspan
               x="0 7.9442 14.0624 21.399401 25.062401"
               y="0"
               id="tspan128">HLA-C</tspan></text></g><g
           id="g132"
           transform="matrix(1.425171,0,0,-1.425158,157.9814,743.4052)"><text
             transform="translate(135.3231,378.231)"
             style="font-variant:normal;font-weight:normal;font-size:11px;font-family:Arial;-inkscape-font-specification:ArialMT;writing-mode:lr-tb;fill:#000000;fill-opacity:1;fill-rule:nonzero;stroke:none"
             id="text136"><tspan
               x="0 7.9442 14.0624 21.399401 25.062401 33.006599 40.343601 47.680599"
               y="0"
               id="tspan134">HLA-DPB1</tspan></text></g><g
           id="g138"
           transform="matrix(1.425171,0,0,-1.425158,157.9814,743.4052)"><text
             transform="translate(134.1039,397.0601)"
             style="font-variant:normal;font-weight:normal;font-size:11px;font-family:Arial;-inkscape-font-specification:ArialMT;writing-mode:lr-tb;fill:#000000;fill-opacity:1;fill-rule:nonzero;stroke:none"
             id="text142"><tspan
               x="0 7.9442 14.0624 21.399401 25.062401 33.006599 41.562401 48.899399"
               y="0"
               id="tspan140">HLA-DQB1</tspan></text></g><g
           id="g144"
           transform="matrix(1.425171,0,0,-1.425158,157.9814,743.4052)"><text
             transform="translate(134.7162,415.8892)"
             style="font-variant:normal;font-weight:normal;font-size:11px;font-family:Arial;-inkscape-font-specification:ArialMT;writing-mode:lr-tb;fill:#000000;fill-opacity:1;fill-rule:nonzero;stroke:none"
             id="text148"><tspan
               x="0 7.9442 14.0624 21.399401 25.062401 33.006599 40.950802 48.2878"
               y="0"
               id="tspan146">HLA-DRB1</tspan></text></g><g
           id="g150"
           transform="matrix(1.425171,0,0,-1.425158,157.9814,743.4052)"><text
             transform="translate(156.7216,434.7182)"
             style="font-variant:normal;font-weight:normal;font-size:11px;font-family:Arial;-inkscape-font-specification:ArialMT;writing-mode:lr-tb;fill:#000000;fill-opacity:1;fill-rule:nonzero;stroke:none"
             id="text154"><tspan
               x="0 7.9442 14.0624 21.399401 25.062401"
               y="0"
               id="tspan152">HLA-E</tspan></text></g><g
           id="g156"
           transform="matrix(1.425171,0,0,-1.425158,157.9814,743.4052)"><text
             transform="translate(133.4755,453.5473)"
             style="font-variant:normal;font-weight:normal;font-size:11px;font-family:Arial;-inkscape-font-specification:ArialMT;writing-mode:lr-tb;fill:#000000;fill-opacity:1;fill-rule:nonzero;stroke:none"
             id="text160"><tspan
               x="0 7.9442 15.2812 22.6182 28.736401 34.854599 42.191601 49.528599"
               y="0"
               id="tspan158">HSP90AA1</tspan></text></g><g
           id="g162"
           transform="matrix(1.425171,0,0,-1.425158,157.9814,743.4052)"><text
             transform="translate(162.4257,472.3764)"
             style="font-variant:normal;font-weight:normal;font-size:11px;font-family:Arial;-inkscape-font-specification:ArialMT;writing-mode:lr-tb;fill:#000000;fill-opacity:1;fill-rule:nonzero;stroke:none"
             id="text166"><tspan
               x="0 5.9025998 13.2396 20.576599"
               y="0"
               id="tspan164">TAP1</tspan></text></g><g
           id="g168"
           transform="matrix(1.425171,0,0,-1.425158,157.9814,743.4052)"><text
             transform="translate(159.7777,491.2055)"
             style="font-variant:normal;font-weight:normal;font-size:11px;font-family:Arial;-inkscape-font-specification:ArialMT;writing-mode:lr-tb;fill:#000000;fill-opacity:1;fill-rule:nonzero;stroke:none"
             id="text172"><tspan
               x="0 7.9442 15.2812 21.399401"
               y="0"
               id="tspan170">CALR</tspan></text></g></g></g><g
       id="g174"><g
         id="g176"><g
           id="g182"><path
             d="M 0,0 V 0 0 Z"
             style="fill:url(#linearGradient188);stroke:none"
             id="path190" /></g></g></g><g
       id="g192"><g
         id="g194"
         clip-path="url(#clipPath198)"><g
           id="g200"
           transform="matrix(1.425171,0,0,-1.425158,157.9814,743.4052)"><path
             d="m 288.6,361.92 h 3.36 m 14.64,0 h -3.36 M 288.6,328.56 h 3.36 m 14.64,0 h -3.36 M 288.6,295.2 h 3.36 m 14.64,0 h -3.36"
             style="fill:none;stroke:#000000;stroke-width:1.44;stroke-linecap:butt;stroke-linejoin:miter;stroke-miterlimit:10;stroke-dasharray:none;stroke-opacity:1"
             id="path202" /></g><g
           id="g204"
           transform="matrix(1.425171,0,0,-1.425158,157.9814,743.4052)"><path
             d="m 288.6,293.04 h 18 v 68.88 h -18 z"
             style="fill:none;stroke:#000000;stroke-width:1.44;stroke-linecap:butt;stroke-linejoin:miter;stroke-miterlimit:10;stroke-dasharray:none;stroke-opacity:1"
             id="path206" /></g><g
           id="g208"
           transform="matrix(1.425171,0,0,-1.425158,157.9814,743.4052)"><text
             transform="translate(313.0831,365.72)"
             style="font-variant:normal;font-weight:normal;font-size:12px;font-family:Arial;-inkscape-font-specification:ArialMT;writing-mode:lr-tb;fill:#000000;fill-opacity:1;fill-rule:nonzero;stroke:none"
             id="text212"><tspan
               x="0"
               y="0"
               id="tspan210">0</tspan></text></g><g
           id="g214"
           transform="matrix(1.425171,0,0,-1.425158,157.9814,743.4052)"><text
             transform="translate(313.1392,332.36)"
             style="font-variant:normal;font-weight:normal;font-size:12px;font-family:Arial;-inkscape-font-specification:ArialMT;writing-mode:lr-tb;fill:#000000;fill-opacity:1;fill-rule:nonzero;stroke:none"
             id="text218"><tspan
               x="0 6.474 9.6120005"
               y="0"
               id="tspan216">0.5</tspan></text></g><g
           id="g220"
           transform="matrix(1.425171,0,0,-1.425158,157.9814,743.4052)"><text
             transform="translate(313.08,298.56)"
             style="font-variant:normal;font-weight:normal;font-size:10px;font-family:Arial;-inkscape-font-specification:ArialMT;writing-mode:lr-tb;fill:#000000;fill-opacity:1;fill-rule:nonzero;stroke:none"
             id="text224"><tspan
               x="0 5.362 7.9439998"
               y="0"
               id="tspan222">1.0</tspan></text></g></g></g><g
       id="g226"><g
         id="g228"
         clip-path="url(#clipPath232)"><path
           d="m 362.5747,282.2476 h 50.6644 v 26.83441 h -50.6644 z"
           style="fill:#c8d5e4;fill-opacity:1;fill-rule:nonzero;stroke:none"
           id="path234" /><path
           d="m 362.5747,255.4132 h 50.6644 v 26.83441 h -50.6644 z"
           style="fill:#acc1d6;fill-opacity:1;fill-rule:nonzero;stroke:none"
           id="path236" /><path
           d="m 362.5747,228.5787 h 50.6644 v 26.83441 h -50.6644 z"
           style="fill:#c0d0e0;fill-opacity:1;fill-rule:nonzero;stroke:none"
           id="path238" /><path
           d="m 362.5747,201.7443 h 50.6644 v 26.83441 h -50.6644 z"
           style="fill:#a0b7d0;fill-opacity:1;fill-rule:nonzero;stroke:none"
           id="path240" /><path
           d="m 362.5747,174.91 h 50.6644 v 26.83441 h -50.6644 z"
           style="fill:#b9cadc;fill-opacity:1;fill-rule:nonzero;stroke:none"
           id="path242" /><path
           d="m 362.5747,148.0755 h 50.6644 v 26.83441 h -50.6644 z"
           style="fill:#feffff;fill-opacity:1;fill-rule:nonzero;stroke:none"
           id="path244" /><path
           d="m 362.5747,121.2411 h 50.6644 v 26.83441 h -50.6644 z"
           style="fill:#005393;fill-opacity:1;fill-rule:nonzero;stroke:none"
           id="path246" /><path
           d="m 362.5747,94.40671 h 50.6644 v 26.83441 h -50.6644 z"
           style="fill:#c4d2e2;fill-opacity:1;fill-rule:nonzero;stroke:none"
           id="path248" /><path
           d="m 362.5747,67.5723 h 50.6644 v 26.83441 h -50.6644 z"
           style="fill:#bdcedf;fill-opacity:1;fill-rule:nonzero;stroke:none"
           id="path250" /><path
           d="m 362.5747,40.73789 h 50.6644 V 67.5723 h -50.6644 z"
           style="fill:#b4c7db;fill-opacity:1;fill-rule:nonzero;stroke:none"
           id="path252" /><path
           d="m 362.5747,13.90349 h 50.6644 V 40.7379 h -50.6644 z"
           style="fill:#bfcfe0;fill-opacity:1;fill-rule:nonzero;stroke:none"
           id="path254" /></g></g><g
       id="g256"><g
         id="g258"
         clip-path="url(#clipPath262)"><path
           d="m 418.2414,282.2476 h 50.6644 v 26.83441 h -50.6644 z"
           style="fill:#9cb5cf;fill-opacity:1;fill-rule:nonzero;stroke:none"
           id="path264" /><path
           d="m 418.2414,255.4132 h 50.6644 v 26.83441 h -50.6644 z"
           style="fill:#bccdde;fill-opacity:1;fill-rule:nonzero;stroke:none"
           id="path266" /><path
           d="m 418.2414,228.5787 h 50.6644 v 26.83441 h -50.6644 z"
           style="fill:#c9d6e4;fill-opacity:1;fill-rule:nonzero;stroke:none"
           id="path268" /><path
           d="m 418.2414,201.7443 h 50.6644 v 26.83441 h -50.6644 z"
           style="fill:#9bb5ce;fill-opacity:1;fill-rule:nonzero;stroke:none"
           id="path270" /><path
           d="m 418.2414,174.91 h 50.6644 v 26.83441 h -50.6644 z"
           style="fill:#c1d0e0;fill-opacity:1;fill-rule:nonzero;stroke:none"
           id="path272" /><path
           d="m 418.2414,148.0755 h 50.6644 v 26.83441 h -50.6644 z"
           style="fill:#d9e2ec;fill-opacity:1;fill-rule:nonzero;stroke:none"
           id="path274" /><path
           d="m 418.2414,121.2411 h 50.6644 v 26.83441 h -50.6644 z"
           style="fill:#b6c8db;fill-opacity:1;fill-rule:nonzero;stroke:none"
           id="path276" /><path
           d="m 418.2414,94.40671 h 50.6644 v 26.83441 h -50.6644 z"
           style="fill:#b4c7da;fill-opacity:1;fill-rule:nonzero;stroke:none"
           id="path278" /><path
           d="m 418.2414,67.5723 h 50.6644 v 26.83441 h -50.6644 z"
           style="fill:#b7c9db;fill-opacity:1;fill-rule:nonzero;stroke:none"
           id="path280" /><path
           d="m 418.2414,40.73789 h 50.6644 V 67.5723 h -50.6644 z"
           style="fill:#bccdde;fill-opacity:1;fill-rule:nonzero;stroke:none"
           id="path282" /><path
           d="m 418.2414,13.90349 h 50.6644 V 40.7379 h -50.6644 z"
           style="fill:#9fb7d0;fill-opacity:1;fill-rule:nonzero;stroke:none"
           id="path284" /></g></g><g
       id="g286"><g
         id="g288"
         clip-path="url(#clipPath292)"><g
           id="g294"
           transform="matrix(0,1.425157,2.137738,0,374.6958,318.8301)"><text
             transform="translate(0,10)"
             style="font-variant:normal;font-weight:normal;font-size:11px;font-family:Arial;-inkscape-font-specification:ArialMT;writing-mode:lr-tb;fill:#000000;fill-opacity:1;fill-rule:nonzero;stroke:none"
             id="text298"><tspan
               x="0 6.1181998 9.7812004 12.2254 21.388399 27.506599 31.1696 33.6138 39.731998 45.231998 51.350201 56.850201 62.350201 68.468399 77.631401 83.749603 86.805397 92.923599 98.423599 104.5418 112.486"
               y="0"
               id="tspan296">primarios_vs_metas_wt</tspan></text></g><g
           id="g300"
           transform="matrix(0,1.425157,2.137738,0,430.3625,318.8301)"><text
             transform="translate(0,10)"
             style="font-variant:normal;font-weight:normal;font-size:11px;font-family:Arial;-inkscape-font-specification:ArialMT;writing-mode:lr-tb;fill:#000000;fill-opacity:1;fill-rule:nonzero;stroke:none"
             id="text304"><tspan
               x="0 6.1181998 9.7812004 12.2254 21.388399 27.506599 31.1696 33.6138 39.731998 45.231998 51.350201 56.850201 62.350201 68.468399 77.631401 83.749603 86.805397 92.923599 98.423599 104.5418 113.7048 119.823"
               y="0"
               id="tspan302">primarios_vs_metas_mut</tspan></text></g><g
           id="g306"
           transform="matrix(2.137738,0,0,-1.425157,-56.07991,721.9213)"><text
             transform="translate(157.3285,302.9146)"
             style="font-variant:normal;font-weight:normal;font-size:11px;font-family:Arial;-inkscape-font-specification:ArialMT;writing-mode:lr-tb;fill:#000000;fill-opacity:1;fill-rule:nonzero;stroke:none"
             id="text310"><tspan
               x="0 7.3369999 15.2812 18.337 25.674"
               y="0"
               id="tspan308">PDIA3</tspan></text></g><g
           id="g312"
           transform="matrix(2.137738,0,0,-1.425157,-56.07991,721.9213)"><text
             transform="translate(156.7216,321.7437)"
             style="font-variant:normal;font-weight:normal;font-size:11px;font-family:Arial;-inkscape-font-specification:ArialMT;writing-mode:lr-tb;fill:#000000;fill-opacity:1;fill-rule:nonzero;stroke:none"
             id="text316"><tspan
               x="0 7.9442 14.0624 21.399401 25.062401"
               y="0"
               id="tspan314">HLA-A</tspan></text></g><g
           id="g318"
           transform="matrix(2.137738,0,0,-1.425157,-56.07991,721.9213)"><text
             transform="translate(156.7216,340.5728)"
             style="font-variant:normal;font-weight:normal;font-size:11px;font-family:Arial;-inkscape-font-specification:ArialMT;writing-mode:lr-tb;fill:#000000;fill-opacity:1;fill-rule:nonzero;stroke:none"
             id="text322"><tspan
               x="0 7.9442 14.0624 21.399401 25.062401"
               y="0"
               id="tspan320">HLA-B</tspan></text></g><g
           id="g324"
           transform="matrix(2.137738,0,0,-1.425157,-56.07991,721.9213)"><text
             transform="translate(156.1146,359.4019)"
             style="font-variant:normal;font-weight:normal;font-size:11px;font-family:Arial;-inkscape-font-specification:ArialMT;writing-mode:lr-tb;fill:#000000;fill-opacity:1;fill-rule:nonzero;stroke:none"
             id="text328"><tspan
               x="0 7.9442 14.0624 21.399401 25.062401"
               y="0"
               id="tspan326">HLA-C</tspan></text></g><g
           id="g330"
           transform="matrix(2.137738,0,0,-1.425157,-56.07991,721.9213)"><text
             transform="translate(135.3231,378.231)"
             style="font-variant:normal;font-weight:normal;font-size:11px;font-family:Arial;-inkscape-font-specification:ArialMT;writing-mode:lr-tb;fill:#000000;fill-opacity:1;fill-rule:nonzero;stroke:none"
             id="text334"><tspan
               x="0 7.9442 14.0624 21.399401 25.062401 33.006599 40.343601 47.680599"
               y="0"
               id="tspan332">HLA-DPB1</tspan></text></g><g
           id="g336"
           transform="matrix(2.137738,0,0,-1.425157,-56.07991,721.9213)"><text
             transform="translate(134.1039,397.0601)"
             style="font-variant:normal;font-weight:normal;font-size:11px;font-family:Arial;-inkscape-font-specification:ArialMT;writing-mode:lr-tb;fill:#000000;fill-opacity:1;fill-rule:nonzero;stroke:none"
             id="text340"><tspan
               x="0 7.9442 14.0624 21.399401 25.062401 33.006599 41.562401 48.899399"
               y="0"
               id="tspan338">HLA-DQB1</tspan></text></g><g
           id="g342"
           transform="matrix(2.137738,0,0,-1.425157,-56.07991,721.9213)"><text
             transform="translate(134.7162,415.8892)"
             style="font-variant:normal;font-weight:normal;font-size:11px;font-family:Arial;-inkscape-font-specification:ArialMT;writing-mode:lr-tb;fill:#000000;fill-opacity:1;fill-rule:nonzero;stroke:none"
             id="text346"><tspan
               x="0 7.9442 14.0624 21.399401 25.062401 33.006599 40.950802 48.2878"
               y="0"
               id="tspan344">HLA-DRB1</tspan></text></g><g
           id="g348"
           transform="matrix(2.137738,0,0,-1.425157,-56.07991,721.9213)"><text
             transform="translate(156.7216,434.7182)"
             style="font-variant:normal;font-weight:normal;font-size:11px;font-family:Arial;-inkscape-font-specification:ArialMT;writing-mode:lr-tb;fill:#000000;fill-opacity:1;fill-rule:nonzero;stroke:none"
             id="text352"><tspan
               x="0 7.9442 14.0624 21.399401 25.062401"
               y="0"
               id="tspan350">HLA-E</tspan></text></g><g
           id="g354"
           transform="matrix(2.137738,0,0,-1.425157,-56.07991,721.9213)"><text
             transform="translate(133.4755,453.5473)"
             style="font-variant:normal;font-weight:normal;font-size:11px;font-family:Arial;-inkscape-font-specification:ArialMT;writing-mode:lr-tb;fill:#000000;fill-opacity:1;fill-rule:nonzero;stroke:none"
             id="text358"><tspan
               x="0 7.9442 15.2812 22.6182 28.736401 34.854599 42.191601 49.528599"
               y="0"
               id="tspan356">HSP90AA1</tspan></text></g><g
           id="g360"
           transform="matrix(2.137738,0,0,-1.425157,-56.07991,721.9213)"><text
             transform="translate(162.4257,472.3764)"
             style="font-variant:normal;font-weight:normal;font-size:11px;font-family:Arial;-inkscape-font-specification:ArialMT;writing-mode:lr-tb;fill:#000000;fill-opacity:1;fill-rule:nonzero;stroke:none"
             id="text364"><tspan
               x="0 5.9025998 13.2396 20.576599"
               y="0"
               id="tspan362">TAP1</tspan></text></g><g
           id="g366"
           transform="matrix(2.137738,0,0,-1.425157,-56.07991,721.9213)"><text
             transform="translate(159.7777,491.2055)"
             style="font-variant:normal;font-weight:normal;font-size:11px;font-family:Arial;-inkscape-font-specification:ArialMT;writing-mode:lr-tb;fill:#000000;fill-opacity:1;fill-rule:nonzero;stroke:none"
             id="text370"><tspan
               x="0 7.9442 15.2812 21.399401"
               y="0"
               id="tspan368">CALR</tspan></text></g><g
           id="g372"><path
             d="m 568.018,211.4594 h 23.1429 v 89.99999 H 568.018 Z"
             style="fill:url(#linearGradient378);stroke:none"
             id="path380" /></g><g
           id="g382"
           transform="matrix(2.137738,0,0,-1.425157,-56.07991,721.9213)"><path
             d="m 288.6,361.92 h 3.36 m 14.64,0 h -3.36 M 288.6,328.56 h 3.36 m 14.64,0 h -3.36 M 288.6,295.2 h 3.36 m 14.64,0 h -3.36"
             style="fill:none;stroke:#000000;stroke-width:1.44;stroke-linecap:butt;stroke-linejoin:miter;stroke-miterlimit:10;stroke-dasharray:none;stroke-opacity:1"
             id="path384" /></g><g
           id="g386"
           transform="matrix(2.137738,0,0,-1.425157,-56.07991,721.9213)"><path
             d="m 288.6,293.04 h 18 v 68.88 h -18 z"
             style="fill:none;stroke:#000000;stroke-width:1.44;stroke-linecap:butt;stroke-linejoin:miter;stroke-miterlimit:10;stroke-dasharray:none;stroke-opacity:1"
             id="path388" /></g><g
           id="g390"
           transform="matrix(2.137738,0,0,-1.425157,-56.07991,721.9213)"><text
             transform="translate(313.0831,365.72)"
             style="font-variant:normal;font-weight:normal;font-size:12px;font-family:Arial;-inkscape-font-specification:ArialMT;writing-mode:lr-tb;fill:#000000;fill-opacity:1;fill-rule:nonzero;stroke:none"
             id="text394"><tspan
               x="0"
               y="0"
               id="tspan392">0</tspan></text></g><g
           id="g396"
           transform="matrix(2.137738,0,0,-1.425157,-56.07991,721.9213)"><text
             transform="translate(313.1392,332.36)"
             style="font-variant:normal;font-weight:normal;font-size:12px;font-family:Arial;-inkscape-font-specification:ArialMT;writing-mode:lr-tb;fill:#000000;fill-opacity:1;fill-rule:nonzero;stroke:none"
             id="text400"><tspan
               x="0 6.474 9.6120005"
               y="0"
               id="tspan398">0.5</tspan></text></g><g
           id="g402"
           transform="matrix(2.137738,0,0,-1.425157,-56.07991,721.9213)"><text
             transform="translate(313.08,298.56)"
             style="font-variant:normal;font-weight:normal;font-size:10px;font-family:Arial;-inkscape-font-specification:ArialMT;writing-mode:lr-tb;fill:#000000;fill-opacity:1;fill-rule:nonzero;stroke:none"
             id="text406"><tspan
               x="0 5.362 7.9439998"
               y="0"
               id="tspan404">1.0</tspan></text></g></g></g><g
       id="g408"><path
         d="m 591.1609,303.485 h 99.5427 v -24.2344 h -99.5427 z"
         style="fill:#ffffff;fill-opacity:1;fill-rule:nonzero;stroke:none"
         id="path410" /><g
         id="g412"
         transform="matrix(0.24,0,0,0.24,598.3609,-253.2)"><text
           transform="matrix(1,0,0,-1,0,2250)"
           style="font-variant:normal;font-weight:normal;font-size:58.3333px;font-family:Aptos;-inkscape-font-specification:Aptos;writing-mode:lr-tb;fill:#000000;fill-opacity:1;fill-rule:nonzero;stroke:none"
           id="text416"><tspan
             x="0 31.249165 43.248329 57.289162 89.588326 101.58749 151.56166 182.28583 200.81833 232.06749 259.875 278.40747 309.65665 337.75583 351.79666"
             y="0"
             id="tspan414">&gt; in metastasis</tspan></text></g><path
         d="m 591.1609,227.8625 h 83.7803 V 203.628 h -83.7803 z"
         style="fill:#ffffff;fill-opacity:1;fill-rule:nonzero;stroke:none"
         id="path418" /><g
         id="g420"
         transform="matrix(0.24,0,0,0.24,598.3609,-328.8)"><text
           transform="matrix(1,0,0,-1,0,2250)"
           style="font-variant:normal;font-weight:normal;font-size:58.3333px;font-family:Aptos;-inkscape-font-specification:Aptos;writing-mode:lr-tb;fill:#000000;fill-opacity:1;fill-rule:nonzero;stroke:none"
           id="text424"><tspan
             x="0 31.249165 43.248329 57.289162 89.588326 101.58749 134.41165 153.70248 167.74332 217.71748 248.96666 269.13248"
             y="0"
             id="tspan422">&gt; in primary</tspan></text></g><path
         d="M 568.018,338.278 H 692.9967 V 314.0435 H 568.018 Z"
         style="fill:#ffffff;fill-opacity:1;fill-rule:nonzero;stroke:none"
         id="path426" /><g
         id="g428"
         transform="matrix(0.24,0,0,0.24,575.218,-218.4)"><text
           transform="matrix(1,0,0,-1,0,2250)"
           style="font-variant:normal;font-weight:normal;font-size:58.3333px;font-family:Aptos;-inkscape-font-specification:Aptos;writing-mode:lr-tb;fill:#000000;fill-opacity:1;fill-rule:nonzero;stroke:none"
           id="text432"><tspan
             x="0 42.70583 75.494995 106.76749 139.09 157.82083 171.88499 190.61583 217.16331 229.12749 261.44998 279.18915 291.15332 323.94247 342.43997 374.76248 393.20163 423.94913 438.01331"
             y="0"
             id="tspan430">Quantity of protein</tspan></text></g><g
         id="g434"
         transform="matrix(0.24,0,0,0.24,514.6022,-233.52)"><text
           transform="matrix(1,0,0,-1,0,2250)"
           style="font-variant:normal;font-weight:normal;font-size:87.5px;font-family:Aptos;-inkscape-font-specification:Aptos;writing-mode:lr-tb;fill:#000000;fill-opacity:1;fill-rule:nonzero;stroke:none"
           id="text438"><tspan
             x="0"
             y="0"
             id="tspan436">*</tspan></text></g><g
         id="g440"
         transform="matrix(0.24,0,0,0.24,514.629,-395.04)"><text
           transform="matrix(1,0,0,-1,0,2250)"
           style="font-variant:normal;font-weight:normal;font-size:87.5px;font-family:Aptos;-inkscape-font-specification:Aptos;writing-mode:lr-tb;fill:#000000;fill-opacity:1;fill-rule:nonzero;stroke:none"
           id="text444"><tspan
             x="0"
             y="0"
             id="tspan442">*</tspan></text></g><path
         d="m 444.6649,332.1196 v 177.9258 h 24.2344 V 332.1196 Z"
         style="fill:#ffffff;fill-opacity:1;fill-rule:nonzero;stroke:none"
         id="path446" /><g
         id="g448"
         transform="matrix(0,0.24,-0.24,0,1001.265,339.36)"><text
           transform="matrix(1,0,0,-1,0,2250)"
           style="font-variant:normal;font-weight:normal;font-size:58.3333px;font-family:Aptos;-inkscape-font-specification:Aptos;writing-mode:lr-tb;fill:#000000;fill-opacity:1;fill-rule:nonzero;stroke:none"
           id="text452"><tspan
             x="0 45.832497 76.556664 95.089165 126.33833 154.14583 172.67833 203.92749 232.02666 246.06749 274.16666 286.1658 339.11499 367.21414"
             y="0"
             id="tspan450">Metastasis WT </tspan></text></g><path
         d="M 480,332.4881 V 540 h 24.2344 V 332.4881 Z"
         style="fill:#ffffff;fill-opacity:1;fill-rule:nonzero;stroke:none"
         id="path454" /><g
         id="g456"
         transform="matrix(0,0.24,-0.24,0,1036.6,339.6)"><text
           transform="matrix(1,0,0,-1,0,2250)"
           style="font-variant:normal;font-weight:normal;font-size:58.3333px;font-family:Aptos;-inkscape-font-specification:Aptos;writing-mode:lr-tb;fill:#000000;fill-opacity:1;fill-rule:nonzero;stroke:none"
           id="text460"><tspan
             x="0 45.832497 76.556664 95.089165 126.33833 154.14583 172.67833 203.92749 232.02666 246.06749 274.16666 286.1658 336.13998 368.96414 387.49664 418.22079 436.69498 467.41913 500.24332"
             y="0"
             id="tspan458">Metastasis mutated </tspan></text></g></g></g></svg>
